<svg width="135" height="38" viewBox="0 0 135 38" fill="none" xmlns="http://www.w3.org/2000/svg">
<g filter="url(#filter0_i_101_2)">
<rect width="38" height="38" rx="11.875" fill="url(#paint0_linear_101_2)"/>
</g>
<g filter="url(#filter1_dd_101_2)">
<circle cx="19.1941" cy="19.1941" r="12.1226" fill="url(#paint1_linear_101_2)"/>
</g>
<g clip-path="url(#clip0_101_2)">
<path d="M24.9992 18.9997C24.9992 17.6772 17.2763 13.4172 15.9726 14.0664C14.6688 14.7164 14.6834 23.2914 15.9726 23.9339C17.2613 24.5764 25.0001 20.3235 25.0001 18.9997H24.9992ZM17.1038 22.2331C16.2588 21.8131 16.2496 16.1943 17.1038 15.7689C17.9584 15.3431 23.0188 18.1331 23.0188 19.001C23.0188 19.8681 17.9496 22.6552 17.1038 22.2339V22.2331ZM21.1676 18.9997C21.1676 18.5606 18.6051 17.1472 18.1721 17.3622C17.7388 17.5781 17.7442 20.4239 18.1721 20.6372C18.6001 20.8502 21.168 19.4397 21.168 18.9997H21.1676Z" fill="url(#paint2_linear_101_2)"/>
</g>
<path d="M52.5855 28V9.7577H64.6639V12.9376H56.4424V17.2844H63.8623V20.4644H56.4424V28H52.5855ZM67.1869 28V14.3183H70.9815V28H67.1869ZM69.0931 12.5546C68.529 12.5546 68.045 12.3676 67.6412 11.9934C67.2433 11.6134 67.0444 11.1591 67.0444 10.6306C67.0444 10.1081 67.2433 9.65971 67.6412 9.28561C68.045 8.90556 68.529 8.71553 69.0931 8.71553C69.6572 8.71553 70.1382 8.90556 70.5361 9.28561C70.9399 9.65971 71.1418 10.1081 71.1418 10.6306C71.1418 11.1591 70.9399 11.6134 70.5361 11.9934C70.1382 12.3676 69.6572 12.5546 69.0931 12.5546ZM77.8157 20.0903V28H74.0211V14.3183H77.6375V16.7322H77.7978C78.1007 15.9364 78.6084 15.307 79.321 14.8438C80.0336 14.3747 80.8976 14.1401 81.913 14.1401C82.8632 14.1401 83.6916 14.348 84.3982 14.7636C85.1049 15.1793 85.6541 15.7731 86.0461 16.5451C86.438 17.3111 86.634 18.2256 86.634 19.2886V28H82.8394V19.9655C82.8454 19.1283 82.6316 18.475 82.1981 18.0059C81.7646 17.5309 81.1678 17.2933 80.4077 17.2933C79.897 17.2933 79.4457 17.4032 79.0538 17.6229C78.6678 17.8426 78.3649 18.1633 78.1452 18.5849C77.9314 19.0006 77.8216 19.5024 77.8157 20.0903Z" fill="url(#paint3_linear_101_2)"/>
<path d="M95.8063 28.2672C94.4227 28.2672 93.2262 27.9733 92.2167 27.3854C91.2131 26.7916 90.4381 25.9661 89.8918 24.9091C89.3455 23.8462 89.0723 22.614 89.0723 21.2126C89.0723 19.7993 89.3455 18.5641 89.8918 17.5071C90.4381 16.4442 91.2131 15.6187 92.2167 15.0309C93.2262 14.437 94.4227 14.1401 95.8063 14.1401C97.1899 14.1401 98.3835 14.437 99.3871 15.0309C100.397 15.6187 101.175 16.4442 101.721 17.5071C102.267 18.5641 102.54 19.7993 102.54 21.2126C102.54 22.614 102.267 23.8462 101.721 24.9091C101.175 25.9661 100.397 26.7916 99.3871 27.3854C98.3835 27.9733 97.1899 28.2672 95.8063 28.2672ZM95.8241 25.3278C96.4536 25.3278 96.9791 25.1496 97.4007 24.7933C97.8224 24.4311 98.1401 23.9382 98.3538 23.3147C98.5735 22.6912 98.6834 21.9816 98.6834 21.1859C98.6834 20.3901 98.5735 19.6805 98.3538 19.057C98.1401 18.4335 97.8224 17.9406 97.4007 17.5784C96.9791 17.2161 96.4536 17.035 95.8241 17.035C95.1887 17.035 94.6543 17.2161 94.2208 17.5784C93.7933 17.9406 93.4696 18.4335 93.2499 19.057C93.0361 19.6805 92.9292 20.3901 92.9292 21.1859C92.9292 21.9816 93.0361 22.6912 93.2499 23.3147C93.4696 23.9382 93.7933 24.4311 94.2208 24.7933C94.6543 25.1496 95.1887 25.3278 95.8241 25.3278ZM110.049 28.2227C109.01 28.2227 108.069 27.9555 107.226 27.421C106.388 26.8806 105.723 26.0879 105.23 25.0428C104.743 23.9917 104.5 22.7031 104.5 21.177C104.5 19.6093 104.752 18.3058 105.257 17.2666C105.762 16.2215 106.433 15.4406 107.27 14.924C108.113 14.4014 109.037 14.1401 110.04 14.1401C110.806 14.1401 111.445 14.2708 111.955 14.532C112.472 14.7874 112.888 15.1081 113.202 15.494C113.523 15.8741 113.767 16.2482 113.933 16.6164H114.049V9.7577H117.834V28H114.093V25.8088H113.933C113.755 26.1888 113.502 26.5659 113.176 26.94C112.855 27.3082 112.436 27.614 111.92 27.8575C111.409 28.101 110.786 28.2227 110.049 28.2227ZM111.252 25.2031C111.863 25.2031 112.38 25.0368 112.802 24.7043C113.229 24.3658 113.556 23.8937 113.781 23.288C114.013 22.6823 114.129 21.9727 114.129 21.1591C114.129 20.3456 114.016 19.6389 113.79 19.0392C113.565 18.4394 113.238 17.9762 112.811 17.6496C112.383 17.323 111.863 17.1597 111.252 17.1597C110.628 17.1597 110.103 17.329 109.675 17.6674C109.248 18.0059 108.924 18.475 108.704 19.0748C108.484 19.6746 108.375 20.3693 108.375 21.1591C108.375 21.9549 108.484 22.6585 108.704 23.2702C108.93 23.8759 109.253 24.3509 109.675 24.6954C110.103 25.0338 110.628 25.2031 111.252 25.2031ZM123.297 33.1306C122.816 33.1306 122.364 33.092 121.943 33.0149C121.527 32.9436 121.183 32.8516 120.91 32.7387L121.765 29.9062C122.21 30.0428 122.611 30.117 122.967 30.1289C123.329 30.1407 123.641 30.0576 123.902 29.8795C124.17 29.7013 124.386 29.3985 124.553 28.9709L124.775 28.3919L119.867 14.3183H123.858L126.69 24.3658H126.833L129.692 14.3183H133.709L128.392 29.4786C128.136 30.215 127.789 30.8563 127.35 31.4026C126.916 31.9549 126.367 32.3795 125.702 32.6764C125.037 32.9792 124.235 33.1306 123.297 33.1306Z" fill="url(#paint4_linear_101_2)"/>
<defs>
<filter id="filter0_i_101_2" x="0" y="0" width="38" height="39.1875" filterUnits="userSpaceOnUse" color-interpolation-filters="sRGB">
<feFlood flood-opacity="0" result="BackgroundImageFix"/>
<feBlend mode="normal" in="SourceGraphic" in2="BackgroundImageFix" result="shape"/>
<feColorMatrix in="SourceAlpha" type="matrix" values="0 0 0 0 0 0 0 0 0 0 0 0 0 0 0 0 0 0 127 0" result="hardAlpha"/>
<feOffset dy="1.1875"/>
<feGaussianBlur stdDeviation="1.1875"/>
<feComposite in2="hardAlpha" operator="arithmetic" k2="-1" k3="1"/>
<feColorMatrix type="matrix" values="0 0 0 0 0 0 0 0 0 0 0 0 0 0 0 0 0 0 0.05 0"/>
<feBlend mode="normal" in2="shape" result="effect1_innerShadow_101_2"/>
</filter>
<filter id="filter1_dd_101_2" x="5.29028" y="5.88401" width="27.8077" height="27.8077" filterUnits="userSpaceOnUse" color-interpolation-filters="sRGB">
<feFlood flood-opacity="0" result="BackgroundImageFix"/>
<feColorMatrix in="SourceAlpha" type="matrix" values="0 0 0 0 0 0 0 0 0 0 0 0 0 0 0 0 0 0 127 0" result="hardAlpha"/>
<feMorphology radius="0.59375" operator="erode" in="SourceAlpha" result="effect1_dropShadow_101_2"/>
<feOffset dy="0.59375"/>
<feGaussianBlur stdDeviation="0.59375"/>
<feComposite in2="hardAlpha" operator="out"/>
<feColorMatrix type="matrix" values="0 0 0 0 0 0 0 0 0 0 0 0 0 0 0 0 0 0 0.1 0"/>
<feBlend mode="normal" in2="BackgroundImageFix" result="effect1_dropShadow_101_2"/>
<feColorMatrix in="SourceAlpha" type="matrix" values="0 0 0 0 0 0 0 0 0 0 0 0 0 0 0 0 0 0 127 0" result="hardAlpha"/>
<feOffset dy="0.59375"/>
<feGaussianBlur stdDeviation="0.890625"/>
<feComposite in2="hardAlpha" operator="out"/>
<feColorMatrix type="matrix" values="0 0 0 0 0 0 0 0 0 0 0 0 0 0 0 0 0 0 0.1 0"/>
<feBlend mode="normal" in2="effect1_dropShadow_101_2" result="effect2_dropShadow_101_2"/>
<feBlend mode="normal" in="SourceGraphic" in2="effect2_dropShadow_101_2" result="shape"/>
</filter>
<linearGradient id="paint0_linear_101_2" x1="-1.25944" y1="-11.8272" x2="55.9479" y2="25.2713" gradientUnits="userSpaceOnUse">
<stop stop-color="#34D399"/>
<stop offset="1" stop-color="#10B981"/>
</linearGradient>
<linearGradient id="paint1_linear_101_2" x1="7.07153" y1="7.07151" x2="31.3167" y2="31.3167" gradientUnits="userSpaceOnUse">
<stop stop-color="#F8FAFC"/>
<stop offset="1" stop-color="#E2E8F0"/>
</linearGradient>
<linearGradient id="paint2_linear_101_2" x1="24.8635" y1="14.3266" x2="14.4761" y2="23.3779" gradientUnits="userSpaceOnUse">
<stop stop-color="#1E293B"/>
<stop offset="1" stop-color="#0F172A"/>
</linearGradient>
<linearGradient id="paint3_linear_101_2" x1="53.7468" y1="4.40962" x2="69.3023" y2="54.393" gradientUnits="userSpaceOnUse">
<stop stop-color="#1E293B"/>
<stop offset="1" stop-color="#0F172A"/>
</linearGradient>
<linearGradient id="paint4_linear_101_2" x1="48.216" y1="-5.3373" x2="90.0212" y2="70.5719" gradientUnits="userSpaceOnUse">
<stop stop-color="#34D399"/>
<stop offset="1" stop-color="#10B981"/>
</linearGradient>
<clipPath id="clip0_101_2">
<rect width="10" height="10" fill="white" transform="matrix(0 1 -1 0 25.0001 14)"/>
</clipPath>
</defs>
</svg>
