<?xml version="1.0" standalone="no"?>
<!DOCTYPE svg PUBLIC "-//W3C//DTD SVG 20010904//EN"
 "http://www.w3.org/TR/2001/REC-SVG-20010904/DTD/svg10.dtd">
<svg version="1.0" xmlns="http://www.w3.org/2000/svg"
 width="700.000000pt" height="700.000000pt" viewBox="0 0 700.000000 700.000000"
 preserveAspectRatio="xMidYMid meet">
<metadata>
Created by potrace 1.14, written by Peter Selinger 2001-2017
</metadata>
<g transform="translate(0.000000,700.000000) scale(0.100000,-0.100000)"
fill="#000000" stroke="none">
<path d="M1925 6984 c-371 -50 -674 -164 -978 -369 -47 -31 -93 -64 -104 -73
-10 -10 -45 -39 -78 -67 -115 -96 -226 -216 -348 -375 -50 -65 -207 -328 -207
-347 0 -2 -10 -25 -21 -51 -36 -79 -46 -105 -67 -167 -46 -134 -85 -292 -97
-394 -4 -30 -10 -63 -13 -75 -4 -12 -7 -700 -8 -1531 -2 -1610 -2 -1594 47
-1815 66 -297 189 -573 363 -815 28 -38 53 -72 56 -75 3 -3 27 -31 54 -63 175
-208 425 -405 672 -529 95 -47 228 -105 259 -113 6 -1 17 -5 25 -8 68 -27 289
-81 380 -92 25 -3 77 -10 115 -14 92 -12 2969 -12 3060 0 224 29 313 48 490
108 668 228 1195 782 1390 1462 17 61 17 60 39 164 15 72 20 99 35 220 11 78
9 3065 -1 3105 -4 14 -11 57 -17 95 -12 78 -13 82 -35 175 -118 493 -448 976
-861 1261 -27 19 -51 37 -53 42 -2 4 -8 7 -13 7 -5 0 -33 16 -63 35 -30 19
-57 35 -60 35 -2 0 -30 15 -63 33 -171 96 -465 192 -678 222 -27 4 -61 9 -75
13 -14 3 -704 6 -1535 8 -1226 2 -1529 -1 -1610 -12z"/>
</g>
</svg>
